<svg xmlns="http://www.w3.org/2000/svg" viewBox="0 0 410 404"><defs><linearGradient id="a" x1="6.003" x2="235.473" y1="32.94" y2="344.41" gradientUnits="userSpaceOnUse"><stop offset="0" stop-color="#41D1FF"/><stop offset="1" stop-color="#BD34FE"/></linearGradient><linearGradient id="b" x1="194.651" x2="236.076" y1="8.818" y2="292.989" gradientUnits="userSpaceOnUse"><stop offset="0" stop-color="#FFEA83"/><stop offset=".083" stop-color="#FFDD35"/><stop offset="1" stop-color="#FFA800"/></linearGradient></defs><path fill="url(#a)" d="M399.641 59.525 215.643 388.545c-3.8 6.793-13.559 6.833-17.415.07L10.582 59.553C6.38 52.177 12.688 43.218 21.119 44.75l184.48 32.951a11.34 11.34 0 0 0 3.973-.01l180.566-32.904c8.397-1.53 14.716 7.348 10.503 14.738Z"/><path fill="url(#b)" d="M292.965 1.5 156.801 28.179c-2.236.438-3.899 2.328-4.045 4.603l-8.385 141.695c-.214 3.33 2.83 5.923 6.086 5.188l37.931-8.754c3.553-.82 6.754 2.31 6.032 5.886l-11.268 55.181c-.75 3.724 2.736 6.91 6.401 5.922l23.418-7.117c3.675-.99 7.166 2.223 6.391 5.953l-17.899 86.64c-1.13 5.463 6.124 8.38 9.008 3.555l1.924-3.211 111.054-221.402c1.865-3.715-1.347-7.909-5.44-7.091l-39.051 7.533c-3.717.716-6.902-2.7-6.272-6.433l26.914-167.8c-.3-3.854-5.242-5.933-8.634-4.055Z"/></svg>
